<svg xmlns="http://www.w3.org/2000/svg" viewBox="0 0 360 180" fill="none">
  <ellipse cx="178" cy="161" rx="132" ry="12" fill="#dfc883" opacity=".5"/>
  <rect x="197" y="71" width="104" height="81" rx="7" fill="#f9cd48" stroke="#272720" stroke-width="3"/>
  <path d="M197 94h104M250 71v81" stroke="#272720" stroke-width="3"/>
  <rect x="220" y="108" width="38" height="25" rx="2" fill="#fff9e8" stroke="#272720" stroke-width="2"/>
  <path d="M228 116h22m-22 7h15" stroke="#272720" stroke-width="2"/>
  <circle cx="116" cy="37" r="21" fill="#f6cfa8" stroke="#272720" stroke-width="3"/>
  <path d="M94 36c-2-23 28-31 43-13l-4 8c-14-9-27-4-39 5Z" fill="#272720"/>
  <path d="M103 57c-18 6-25 21-23 46l5 34h62l6-47c2-22-10-34-29-36" fill="#f1c33b" stroke="#272720" stroke-width="3"/>
  <path d="m146 79 27 30 30-21" stroke="#272720" stroke-width="12" stroke-linecap="round" stroke-linejoin="round"/>
  <path d="m91 137-8 26m49-26 7 26" stroke="#272720" stroke-width="12" stroke-linecap="round"/>
  <path d="M70 151h91" stroke="#272720" stroke-width="3" stroke-linecap="round"/>
  <path d="M57 83h21M51 95h25M58 107h19" stroke="#b6a06b" stroke-width="3" stroke-linecap="round"/>
</svg>
